<?xml version="1.0" encoding="UTF-8" standalone="no"?>
<!-- Created with Inkscape (http://www.inkscape.org/) -->

<svg
   width="256"
   height="256"
   viewBox="0 0 256 256"
   version="1.1"
   id="svg5"
   xml:space="preserve"
   inkscape:version="1.2.1 (9c6d41e410, 2022-07-14)"
   sodipodi:docname="Telegram icon.svg"
   inkscape:export-filename="Group icon.png"
   inkscape:export-xdpi="96"
   inkscape:export-ydpi="96"
   xmlns:inkscape="http://www.inkscape.org/namespaces/inkscape"
   xmlns:sodipodi="http://sodipodi.sourceforge.net/DTD/sodipodi-0.dtd"
   xmlns="http://www.w3.org/2000/svg"
   xmlns:svg="http://www.w3.org/2000/svg"><sodipodi:namedview
     id="namedview7"
     pagecolor="#ffffff"
     bordercolor="#666666"
     borderopacity="1.0"
     inkscape:showpageshadow="2"
     inkscape:pageopacity="0"
     inkscape:pagecheckerboard="0"
     inkscape:deskcolor="#d1d1d1"
     inkscape:document-units="px"
     showgrid="false"
     inkscape:zoom="1.3626537"
     inkscape:cx="248.04541"
     inkscape:cy="168.05443"
     inkscape:window-width="1920"
     inkscape:window-height="1000"
     inkscape:window-x="-11"
     inkscape:window-y="-11"
     inkscape:window-maximized="1"
     inkscape:current-layer="layer2" /><defs
     id="defs2" /><g
     inkscape:groupmode="layer"
     id="layer2"
     inkscape:label="Layer 2"><g
       id="g2784"
       transform="matrix(3.6864054,0,0,3.6864054,-1454.4252,171.18848)"
       inkscape:export-filename="Group icon.png"
       inkscape:export-xdpi="96"
       inkscape:export-ydpi="96"><circle
         style="color:#000000;overflow:visible;fill:#0172cb;fill-opacity:1;stroke-width:0.654925;-inkscape-stroke:none;stop-color:#000000"
         id="path371"
         cx="429.25967"
         cy="-11.715609"
         r="34.722172" /><path
         style="font-variation-settings:normal;opacity:1;vector-effect:none;fill:#000000;fill-opacity:1;fill-rule:evenodd;stroke:#000000;stroke-width:0.537893px;stroke-linecap:butt;stroke-linejoin:miter;stroke-miterlimit:4;stroke-dasharray:none;stroke-dashoffset:0;stroke-opacity:1;-inkscape-stroke:none;stop-color:#000000;stop-opacity:1"
         d="m 440.35937,6.4543444 0.40757,0.073498 -0.40757,3.9087716 -0.89537,-0.307356 z"
         id="path2753"
         sodipodi:nodetypes="ccccc" /><path
         style="fill:#000000;fill-rule:evenodd;stroke:#000000;stroke-width:1px;stroke-linecap:butt;stroke-linejoin:miter;stroke-opacity:1"
         d="m 424.90483,11.209426 8.70885,0.09938 -2.51647,-17.3542075 -3.67591,0.1258352 z"
         id="path2751"
         sodipodi:nodetypes="ccccc" /><g
         id="g2404"
         transform="translate(-1.7459106)"><circle
           style="color:#000000;overflow:visible;fill:#8cd9f3;fill-opacity:1;stroke:#000000;stroke-width:3;stroke-dasharray:none;stop-color:#000000"
           id="path977"
           cx="431.00558"
           cy="-22.053019"
           r="19.689524" /><path
           id="path1700"
           style="fill:#000000;fill-rule:evenodd;stroke:none;stroke-width:0.1;stroke-linecap:butt;stroke-linejoin:miter;stroke-dasharray:none;stroke-opacity:1"
           d="m 430.75977,-37.603516 c -1.6487,0.0181 -3.34431,0.285499 -5.0625,0.863282 -2.09046,0.702964 -2.9303,3.657 -1.75977,5.853515 0.84435,1.584432 2.16173,4.071535 3.01172,5.75 a 5.3436918,5.3436918 0 0 1 4.16601,-2.015625 5.3436918,5.3436918 0 0 1 2.89649,0.853516 c 0.68316,-2.473167 3.02798,-5.420994 5.50781,-6.320313 1.91217,-0.693454 1.27055,-2.115547 0,-2.77539 -2.6359,-1.368917 -5.61226,-2.243546 -8.75976,-2.208985 z"
           inkscape:transform-center-x="-0.95025721"
           inkscape:transform-center-y="-9.5624108" /><circle
           style="color:#000000;font-variation-settings:normal;overflow:visible;opacity:1;fill:#000000;fill-opacity:1;stroke:none;stroke-width:0.1;stroke-linecap:butt;stroke-linejoin:miter;stroke-miterlimit:4;stroke-dasharray:none;stroke-dashoffset:0;stroke-opacity:1;stop-color:#000000;stop-opacity:1"
           id="path1850"
           cx="431.11514"
           cy="-21.808201"
           r="3.3729069" /><path
           id="path1907"
           style="fill:#000000;fill-rule:evenodd;stroke:none;stroke-width:0.1;stroke-linecap:butt;stroke-linejoin:miter;stroke-dasharray:none;stroke-opacity:1"
           d="m 417.61369,-13.602779 c 0.84003,1.418768 1.9194,2.7535 3.27887,3.952608 1.65402,1.4589072 4.6322,0.7092306 5.94917,-1.402744 0.94999,-1.52345 2.44519,-3.907883 3.47379,-5.483229 a 5.3436918,5.3436918 0 0 1 -3.82858,-2.600071 5.3436918,5.3436918 0 0 1 -0.70905,-2.935195 c -2.48341,0.644929 -6.2087,0.08821 -8.22746,-1.609742 -1.55663,-1.309268 -2.46739,-0.0426 -2.40355,1.387685 0.13242,2.967222 0.86315,5.98214 2.46684,8.690684 z"
           inkscape:transform-center-x="8.3855168"
           inkscape:transform-center-y="5.2467744" /><path
           id="path1909"
           style="fill:#000000;fill-rule:evenodd;stroke:none;stroke-width:0.1;stroke-linecap:butt;stroke-linejoin:miter;stroke-dasharray:none;stroke-opacity:1"
           d="m 444.97198,-14.218313 c 0.80866,-1.436864 1.4249,-3.039008 1.78361,-4.815891 0.43644,-2.161864 -1.70188,-4.36621 -4.18939,-4.450771 -1.79434,-0.061 -4.60692,-0.163629 -6.48551,-0.266762 a 5.3436918,5.3436918 0 0 1 -0.33745,4.615697 5.3436918,5.3436918 0 0 1 -2.18742,2.081643 c 1.80023,1.82823 3.18074,5.332789 2.71966,7.9300613 -0.35555,2.002715 1.19679,2.1581186 2.40355,1.3876872 2.50347,-1.59829 4.7491,-3.7385805 6.29293,-6.4816955 z"
           inkscape:transform-center-x="-9.0690223"
           inkscape:transform-center-y="6.278635" /></g><path
         id="rect2396"
         style="overflow:visible;opacity:1;fill:#000000;fill-opacity:1;stroke:#0172cb;stroke-width:0.4;stroke-dasharray:none;stroke-opacity:1;stop-color:#000000;stop-opacity:1"
         d="m 414.35322,10.645738 c 8.63381,-1.8790448 18.01462,-2.6815348 29.81291,0 0.27011,0.06139 0.5,0.223 0.5,0.5 v 3.145864 c 0,0.277 -0.223,0.5 -0.5,0.5 h -29.81291 c -0.277,0 -0.5,-0.223 -0.5,-0.5 v -3.145864 c 0,-0.277 0.22934,-0.441093 0.5,-0.5 z"
         sodipodi:nodetypes="sssssssss" /></g><circle
       style="color:#000000;overflow:visible;fill:#000000;fill-opacity:1;stroke-width:2.41432;-inkscape-stroke:none;stop-color:#000000"
       id="circle2786"
       cx="447.99997"
       cy="128"
       r="128"
       inkscape:export-filename="Bot icon.png"
       inkscape:export-xdpi="96"
       inkscape:export-ydpi="96" /><path
       style="font-variation-settings:normal;vector-effect:none;fill:#0172cb;fill-opacity:1;fill-rule:evenodd;stroke:none;stroke-width:3.68641px;stroke-linecap:butt;stroke-linejoin:miter;stroke-miterlimit:4;stroke-dasharray:none;stroke-dashoffset:0;stroke-opacity:1;-inkscape-stroke:none;stop-color:#000000;opacity:1;stop-opacity:1"
       d="m 488.91796,194.98181 1.50247,0.27094 -1.50247,14.40932 -3.3007,-1.13304 z"
       id="path2788"
       sodipodi:nodetypes="ccccc" /><path
       style="fill:#0172cb;fill-rule:evenodd;stroke:none;stroke-width:3.68641px;stroke-linecap:butt;stroke-linejoin:miter;stroke-opacity:1;fill-opacity:1"
       d="m 431.94626,212.51097 32.10435,0.36635 -9.27673,-63.97464 -13.55089,0.46388 z"
       id="path2790"
       sodipodi:nodetypes="ccccc" /><circle
       style="color:#000000;overflow:visible;fill:#ffffff;fill-opacity:1;stroke:#0172cb;stroke-width:11.0592;stroke-dasharray:none;stroke-opacity:1;stop-color:#000000"
       id="circle2792"
       cx="448"
       cy="89.892113"
       r="72.583565" /><path
       id="path2794"
       style="fill:#0172cb;fill-rule:evenodd;stroke:#0172cb;stroke-width:0.368641;stroke-linecap:butt;stroke-linejoin:miter;stroke-dasharray:none;stroke-opacity:1;fill-opacity:1"
       d="m 447.09384,32.566676 c -6.07777,0.06672 -12.32848,1.052465 -18.66243,3.182407 -7.70628,2.59141 -10.80227,13.481185 -6.48722,21.578429 3.11262,5.840859 7.96901,15.009329 11.10242,21.196831 a 19.699014,19.699014 0 0 1 15.3576,-7.430411 19.699014,19.699014 0 0 1 10.67764,3.146406 c 2.5184,-9.117096 11.16236,-19.983981 20.30402,-23.299236 7.04903,-2.556352 4.68376,-7.798763 0,-10.231212 -9.717,-5.046383 -20.68907,-8.27062 -32.29203,-8.143214 z"
       inkscape:transform-center-x="-0.95025721"
       inkscape:transform-center-y="-9.5624108" /><circle
       style="color:#000000;font-variation-settings:normal;overflow:visible;fill:#0172cb;fill-opacity:1;stroke:#0172cb;stroke-width:0.368641;stroke-linecap:butt;stroke-linejoin:miter;stroke-miterlimit:4;stroke-dasharray:none;stroke-dashoffset:0;stroke-opacity:1;stop-color:#000000"
       id="circle2796"
       cx="448.4039"
       cy="90.794609"
       r="12.433903" /><path
       id="path2798"
       style="fill:#0172cb;fill-rule:evenodd;stroke:#0172cb;stroke-width:0.368641;stroke-linecap:butt;stroke-linejoin:miter;stroke-dasharray:none;stroke-opacity:1;fill-opacity:1"
       d="m 398.63206,121.04312 c 3.09669,5.23016 7.07569,10.15052 12.08725,14.57092 6.09738,5.37812 17.07616,2.61451 21.93105,-5.17109 3.50205,-5.61605 9.01396,-14.40604 12.8058,-20.2134 a 19.699014,19.699014 0 0 1 -14.1137,-9.58492 19.699014,19.699014 0 0 1 -2.61385,-10.820315 c -9.15485,2.37747 -22.88778,0.325178 -30.32975,-5.934162 -5.73837,-4.826492 -9.0958,-0.15704 -8.86046,5.11557 0.48815,10.938383 3.18192,22.052597 9.09377,32.037387 z"
       inkscape:transform-center-x="8.3855168"
       inkscape:transform-center-y="5.2467744" /><path
       id="path2800"
       style="fill:#0172cb;fill-rule:evenodd;stroke:#0172cb;stroke-width:0.368641;stroke-linecap:butt;stroke-linejoin:miter;stroke-dasharray:none;stroke-opacity:1;fill-opacity:1"
       d="m 499.48581,118.77401 c 2.98105,-5.29686 5.25276,-11.20301 6.57511,-17.75332 1.60889,-7.96951 -6.27382,-16.095623 -15.44379,-16.407349 -6.61467,-0.22487 -16.98298,-0.603202 -23.90822,-0.983393 a 19.699014,19.699014 0 0 1 -1.24398,17.015332 19.699014,19.699014 0 0 1 -8.06371,7.67378 c 6.63637,6.7396 11.72549,19.65882 10.02577,29.23342 -1.31071,7.38282 4.41185,7.9557 8.86046,5.11558 9.2288,-5.89195 17.5071,-13.78193 23.19829,-23.89416 z"
       inkscape:transform-center-x="-9.0690223"
       inkscape:transform-center-y="6.278635" /><path
       id="path2804"
       style="overflow:visible;fill:#0172cb;fill-opacity:1;stroke:#000000;stroke-width:1.47456;stroke-dasharray:none;stroke-opacity:1;stop-color:#000000"
       d="m 393.04875,210.43299 c 31.82772,-6.92692 66.40919,-9.88523 109.90247,0 0.99574,0.2263 1.8432,0.82206 1.8432,1.8432 v 11.59693 c 0,1.02113 -0.82207,1.8432 -1.8432,1.8432 H 393.04875 c -1.02114,0 -1.8432,-0.82207 -1.8432,-1.8432 v -11.59693 c 0,-1.02114 0.84544,-1.62605 1.8432,-1.8432 z"
       sodipodi:nodetypes="sssssssss" /></g></svg>
